<?xml version="1.0" encoding="utf-8"?>
<svg version="1.1" id="Layer_1" xmlns="http://www.w3.org/2000/svg" xmlns:xlink="http://www.w3.org/1999/xlink" x="0px" y="0px"
	 viewBox="0 0 1024 1024" style="enable-background:new 0 0 1024 1024;" xml:space="preserve">
<style type="text/css">
	.st0{fill:#5D00D4;}
</style>
<g transform="translate(0.000000,1024.000000) scale(0.100000,-0.100000)">
	<path class="st0" d="M4905,10214C2595,10105,638,8463,135,6209C51,5834,17,5512,17,5105c0-313,14-509,58-790
		c191-1219,826-2336,1780-3133C2663,507,3647,102,4706,9c189-16,829-7,999,15c274,35,444,67,691,131c1066,273,2016,888,2713,1755
		c932,1160,1311,2647,1046,4107c-121,665-378,1308-752,1877c-397,605-887,1095-1489,1489c-702,459-1480,732-2315,811
		C5441,10210,5049,10220,4905,10214z M5322,7380c191-39,319-97,455-204c161-127,270-313,314-531c17-87,18-326,1-416l-12-66l44-66
		c73-109,90-164,91-292c0-95-3-117-24-165c-51-115-145-226-250-296c-36-23-51-43-81-110c-79-170-205-368-311-487
		c-61-69-165-143-244-176c-81-33-232-41-325-16c-212,55-403,264-593,647c-53,109-62,121-115,157c-101,70-183,168-232,281
		c-21,47-25,70-24,165c0,125,17,181,93,295l41,62l-12,62c-16,81-16,345,1,421c60,284,215,494,462,629C4807,7387,5087,7427,5322,7380
		z M4624,4710c102-134,270-247,401-271c78-15,198-5,267,21c100,37,245,156,336,274c27,35,27,35,217-40c490-194,759-342,983-541
		c243-215,379-441,447-743c18-80,33-478,21-545l-7-35H5116H2943l-7,31c-3,17-6,111-6,208c0,291,43,485,153,691
		c68,127,117,191,247,321c241,241,520,403,1055,612c169,66,166,65,185,66C4579,4760,4603,4737,4624,4710z"/>
</g>
</svg>
